<?xml version="1.0" encoding="UTF-8"?><svg xmlns="http://www.w3.org/2000/svg" xmlns:xlink="http://www.w3.org/1999/xlink" fill-opacity="1" color-rendering="auto" color-interpolation="auto" text-rendering="auto" stroke="black" stroke-linecap="square" width="526" stroke-miterlimit="10" shape-rendering="auto" stroke-opacity="1" fill="black" stroke-dasharray="none" font-weight="normal" stroke-width="1" height="80" font-family="'Dialog'" font-style="normal" stroke-linejoin="miter" font-size="12px" stroke-dashoffset="0" image-rendering="auto">
  <!--Generated by ySVG 2.5-->
  <defs id="genericDefs"/>
  <g>
    <defs id="defs1">
      <clipPath clipPathUnits="userSpaceOnUse" id="clipPath1">
        <path d="M0 0 L526 0 L526 80 L0 80 L0 0 Z"/>
      </clipPath>
      <clipPath clipPathUnits="userSpaceOnUse" id="clipPath2">
        <path d="M333 326 L859 326 L859 406 L333 406 L333 326 Z"/>
      </clipPath>
    </defs>
    <g fill="white" text-rendering="geometricPrecision" shape-rendering="geometricPrecision" transform="translate(-333,-326)" stroke="white">
      <rect x="333" width="526" height="80" y="326" clip-path="url(#clipPath2)" stroke="none"/>
    </g>
    <g font-size="15px" stroke-linecap="butt" transform="matrix(1,0,0,1,-333,-326)" text-rendering="geometricPrecision" font-family="sans-serif" shape-rendering="geometricPrecision" font-weight="bold" stroke-miterlimit="1.45">
      <text x="387.0638" xml:space="preserve" y="371.1929" clip-path="url(#clipPath2)" stroke="none">iTunes</text>
      <rect x="343.8406" y="344.5925" clip-path="url(#clipPath2)" fill="none" width="142.2787" rx="4" ry="4" height="42.8151"/>
      <text x="728.7589" xml:space="preserve" y="371.1929" clip-path="url(#clipPath2)" stroke="none">Rhythmbox</text>
      <rect x="705.7213" y="344.5925" clip-path="url(#clipPath2)" fill="none" width="142.2787" rx="4" ry="4" height="42.8151"/>
      <path fill="none" d="M486.1457 366 L697.7079 366" clip-path="url(#clipPath2)"/>
      <path d="M705.7079 366 L693.7079 361 L696.7079 366 L693.7079 371 Z" stroke="none" clip-path="url(#clipPath2)"/>
    </g>
    <g stroke-linecap="butt" transform="matrix(1,0,0,1,-333,-326)" fill="white" text-rendering="geometricPrecision" shape-rendering="geometricPrecision" stroke="white" stroke-miterlimit="1.45">
      <rect x="543.2543" width="105.332" height="59.875" y="336.0625" clip-path="url(#clipPath2)" stroke="none"/>
      <text x="545.2543" y="349.2012" clip-path="url(#clipPath2)" fill="black" font-family="sans-serif" stroke="none" xml:space="preserve">Playlists,</text>
      <text x="545.2543" y="363.1699" clip-path="url(#clipPath2)" fill="black" font-family="sans-serif" stroke="none" xml:space="preserve">Play Counts,</text>
      <text x="545.2543" y="377.1387" clip-path="url(#clipPath2)" fill="black" font-family="sans-serif" stroke="none" xml:space="preserve">Ratings,</text>
      <text x="545.2543" y="391.1074" clip-path="url(#clipPath2)" fill="black" font-family="sans-serif" stroke="none" xml:space="preserve">Last Played Date</text>
    </g>
  </g>
</svg>
